<svg width="396" height="87" viewBox="0 0 396 87" fill="none" xmlns="http://www.w3.org/2000/svg">
<g clip-path="url(#clip0_304_5)">
<path d="M32.384 24.736C37.6 24.736 41.776 25.92 44.912 28.288C48.08 30.624 49.664 34.928 49.664 41.2C49.664 47.376 48.128 51.728 45.056 54.256C41.984 56.752 38 58 33.104 58H23.12V24.736H32.384ZM30.992 30.448V52.288H33.584C36.176 52.288 38.144 51.488 39.488 49.888C40.832 48.256 41.504 45.36 41.504 41.2C41.504 38.352 41.168 36.144 40.496 34.576C39.824 33.008 38.912 31.936 37.76 31.36C36.608 30.752 35.184 30.448 33.488 30.448H30.992ZM65.2816 31.696C69.1856 31.696 72.2416 32.896 74.4496 35.296C76.6576 37.664 77.7616 40.992 77.7616 45.28C77.7616 48 77.2496 50.384 76.2256 52.432C75.2336 54.448 73.7936 56.016 71.9056 57.136C70.0496 58.256 67.8416 58.816 65.2816 58.816C61.4096 58.816 58.3536 57.632 56.1136 55.264C53.9056 52.864 52.8016 49.52 52.8016 45.232C52.8016 42.512 53.2976 40.144 54.2896 38.128C55.3136 36.08 56.7536 34.496 58.6096 33.376C60.4976 32.256 62.7216 31.696 65.2816 31.696ZM65.2816 37.264C63.7456 37.264 62.5936 37.92 61.8256 39.232C61.0576 40.512 60.6736 42.512 60.6736 45.232C60.6736 48.016 61.0416 50.048 61.7776 51.328C62.5456 52.608 63.7136 53.248 65.2816 53.248C66.8176 53.248 67.9696 52.608 68.7376 51.328C69.5056 50.016 69.8896 48 69.8896 45.28C69.8896 42.496 69.5056 40.464 68.7376 39.184C68.0016 37.904 66.8496 37.264 65.2816 37.264ZM103.777 58H97.2009L96.8649 54.784C95.0089 57.472 92.4329 58.816 89.1369 58.816C86.8009 58.816 85.0249 58.112 83.8089 56.704C82.6249 55.296 82.0329 53.328 82.0329 50.8V32.512H89.6169V49.84C89.6169 51.088 89.8089 51.968 90.1929 52.48C90.6089 52.96 91.2329 53.2 92.0649 53.2C93.6649 53.2 95.0409 52.208 96.1929 50.224V32.512H103.777V58ZM133.214 34C131.55 34.672 129.102 35.008 125.87 35.008C127.534 35.712 128.75 36.576 129.518 37.6C130.286 38.624 130.67 39.952 130.67 41.584C130.67 43.216 130.238 44.688 129.374 46C128.51 47.28 127.262 48.288 125.63 49.024C124.03 49.76 122.142 50.128 119.966 50.128C118.942 50.128 117.966 50.032 117.038 49.84C116.782 49.968 116.574 50.176 116.414 50.464C116.286 50.72 116.222 50.992 116.222 51.28C116.222 51.76 116.398 52.144 116.75 52.432C117.134 52.688 117.886 52.816 119.006 52.816H122.846C124.798 52.816 126.51 53.136 127.982 53.776C129.454 54.416 130.59 55.296 131.39 56.416C132.19 57.536 132.59 58.8 132.59 60.208C132.59 62.864 131.438 64.928 129.134 66.4C126.862 67.904 123.566 68.656 119.246 68.656C116.142 68.656 113.694 68.32 111.902 67.648C110.11 67.008 108.846 66.096 108.11 64.912C107.406 63.728 107.054 62.24 107.054 60.448H113.87C113.87 61.216 114.014 61.824 114.302 62.272C114.622 62.72 115.182 63.056 115.982 63.28C116.782 63.504 117.934 63.616 119.438 63.616C121.518 63.616 122.958 63.36 123.758 62.848C124.558 62.368 124.958 61.664 124.958 60.736C124.958 59.968 124.654 59.36 124.046 58.912C123.438 58.464 122.526 58.24 121.31 58.24H117.614C114.99 58.24 113.022 57.776 111.71 56.848C110.43 55.888 109.79 54.672 109.79 53.2C109.79 52.272 110.062 51.376 110.606 50.512C111.15 49.616 111.886 48.88 112.814 48.304C111.214 47.44 110.046 46.432 109.31 45.28C108.606 44.096 108.254 42.672 108.254 41.008C108.254 38.16 109.278 35.904 111.326 34.24C113.374 32.544 116.078 31.696 119.438 31.696C121.998 31.76 124.158 31.504 125.918 30.928C127.71 30.352 129.55 29.504 131.438 28.384L133.214 34ZM119.63 36.688C118.446 36.688 117.502 37.072 116.798 37.84C116.126 38.576 115.79 39.6 115.79 40.912C115.79 42.288 116.126 43.36 116.798 44.128C117.502 44.864 118.446 45.232 119.63 45.232C120.878 45.232 121.822 44.864 122.462 44.128C123.134 43.392 123.47 42.288 123.47 40.816C123.47 38.064 122.19 36.688 119.63 36.688ZM142.947 58.816C140.739 58.816 139.011 58.192 137.763 56.944C136.547 55.664 135.939 53.856 135.939 51.52V22.384L143.523 21.568V51.232C143.523 52.288 143.955 52.816 144.819 52.816C145.267 52.816 145.683 52.736 146.067 52.576L147.555 57.952C146.179 58.528 144.643 58.816 142.947 58.816ZM170.451 50.608C170.451 51.568 170.579 52.272 170.835 52.72C171.123 53.168 171.571 53.504 172.179 53.728L170.595 58.672C169.027 58.544 167.747 58.208 166.755 57.664C165.763 57.088 164.995 56.192 164.451 54.976C162.787 57.536 160.227 58.816 156.771 58.816C154.243 58.816 152.227 58.08 150.723 56.608C149.219 55.136 148.467 53.216 148.467 50.848C148.467 48.064 149.491 45.936 151.539 44.464C153.587 42.992 156.547 42.256 160.419 42.256H163.011V41.152C163.011 39.648 162.691 38.624 162.051 38.08C161.411 37.504 160.291 37.216 158.691 37.216C157.859 37.216 156.851 37.344 155.667 37.6C154.483 37.824 153.267 38.144 152.019 38.56L150.291 33.568C151.891 32.96 153.523 32.496 155.187 32.176C156.883 31.856 158.451 31.696 159.891 31.696C163.539 31.696 166.211 32.448 167.907 33.952C169.603 35.456 170.451 37.712 170.451 40.72V50.608ZM158.979 53.392C160.707 53.392 162.051 52.576 163.011 50.944V46.432H161.139C159.411 46.432 158.115 46.736 157.251 47.344C156.419 47.952 156.003 48.896 156.003 50.176C156.003 51.2 156.259 52 156.771 52.576C157.315 53.12 158.051 53.392 158.979 53.392ZM184.999 31.696C186.823 31.696 188.535 31.968 190.135 32.512C191.735 33.056 193.143 33.824 194.359 34.816L191.575 39.088C189.495 37.776 187.399 37.12 185.287 37.12C184.295 37.12 183.527 37.296 182.983 37.648C182.471 37.968 182.215 38.432 182.215 39.04C182.215 39.52 182.327 39.92 182.551 40.24C182.807 40.528 183.303 40.832 184.039 41.152C184.775 41.472 185.911 41.856 187.447 42.304C190.103 43.072 192.071 44.08 193.351 45.328C194.663 46.544 195.319 48.24 195.319 50.416C195.319 52.144 194.823 53.648 193.831 54.928C192.839 56.176 191.479 57.136 189.751 57.808C188.023 58.48 186.103 58.816 183.991 58.816C181.847 58.816 179.847 58.48 177.991 57.808C176.167 57.136 174.615 56.208 173.335 55.024L177.031 50.896C179.175 52.56 181.431 53.392 183.799 53.392C184.951 53.392 185.847 53.184 186.487 52.768C187.159 52.352 187.495 51.76 187.495 50.992C187.495 50.384 187.367 49.904 187.111 49.552C186.855 49.2 186.359 48.88 185.623 48.592C184.887 48.272 183.719 47.888 182.119 47.44C179.591 46.704 177.703 45.68 176.455 44.368C175.207 43.056 174.583 41.424 174.583 39.472C174.583 38 174.999 36.688 175.831 35.536C176.695 34.352 177.911 33.424 179.479 32.752C181.079 32.048 182.919 31.696 184.999 31.696ZM221.465 23.92C223.961 23.92 226.121 24.272 227.945 24.976C229.801 25.68 231.481 26.752 232.985 28.192L229.337 32.464C227.065 30.608 224.633 29.68 222.041 29.68C220.665 29.68 219.577 29.968 218.777 30.544C217.977 31.088 217.577 31.888 217.577 32.944C217.577 33.68 217.753 34.288 218.105 34.768C218.457 35.216 219.081 35.648 219.977 36.064C220.873 36.48 222.217 36.976 224.009 37.552C227.401 38.64 229.897 39.984 231.497 41.584C233.097 43.152 233.897 45.392 233.897 48.304C233.897 50.384 233.369 52.224 232.313 53.824C231.257 55.392 229.737 56.624 227.753 57.52C225.769 58.384 223.417 58.816 220.697 58.816C217.977 58.816 215.561 58.384 213.449 57.52C211.369 56.656 209.577 55.504 208.073 54.064L212.057 49.696C213.337 50.784 214.649 51.6 215.993 52.144C217.369 52.688 218.857 52.96 220.457 52.96C222.089 52.96 223.369 52.608 224.297 51.904C225.257 51.168 225.737 50.16 225.737 48.88C225.737 48.048 225.561 47.36 225.209 46.816C224.857 46.24 224.249 45.728 223.385 45.28C222.521 44.832 221.273 44.352 219.641 43.84C215.961 42.72 213.337 41.344 211.769 39.712C210.233 38.08 209.465 36.016 209.465 33.52C209.465 31.6 209.977 29.92 211.001 28.48C212.025 27.008 213.449 25.888 215.273 25.12C217.097 24.32 219.161 23.92 221.465 23.92ZM258.341 50.608C258.341 51.568 258.469 52.272 258.725 52.72C259.013 53.168 259.461 53.504 260.069 53.728L258.485 58.672C256.917 58.544 255.637 58.208 254.645 57.664C253.653 57.088 252.885 56.192 252.341 54.976C250.677 57.536 248.117 58.816 244.661 58.816C242.133 58.816 240.117 58.08 238.613 56.608C237.109 55.136 236.357 53.216 236.357 50.848C236.357 48.064 237.381 45.936 239.429 44.464C241.477 42.992 244.437 42.256 248.309 42.256H250.901V41.152C250.901 39.648 250.581 38.624 249.941 38.08C249.301 37.504 248.181 37.216 246.581 37.216C245.749 37.216 244.741 37.344 243.557 37.6C242.373 37.824 241.157 38.144 239.909 38.56L238.181 33.568C239.781 32.96 241.413 32.496 243.077 32.176C244.773 31.856 246.341 31.696 247.781 31.696C251.429 31.696 254.101 32.448 255.797 33.952C257.493 35.456 258.341 37.712 258.341 40.72V50.608ZM246.869 53.392C248.597 53.392 249.941 52.576 250.901 50.944V46.432H249.029C247.301 46.432 246.005 46.736 245.141 47.344C244.309 47.952 243.893 48.896 243.893 50.176C243.893 51.2 244.149 52 244.661 52.576C245.205 53.12 245.941 53.392 246.869 53.392ZM279.31 31.696C281.518 31.696 283.246 32.368 284.494 33.712C285.742 35.056 286.366 36.944 286.366 39.376V58H278.782V40.672C278.782 39.392 278.574 38.512 278.158 38.032C277.774 37.52 277.182 37.264 276.382 37.264C274.846 37.264 273.374 38.368 271.966 40.576V58H264.382V32.512H271.006L271.534 35.536C272.622 34.256 273.79 33.296 275.038 32.656C276.318 32.016 277.742 31.696 279.31 31.696ZM308.069 56.8C307.141 57.44 306.053 57.936 304.805 58.288C303.589 58.64 302.373 58.816 301.157 58.816C295.589 58.784 292.805 55.712 292.805 49.6V37.792H289.205V32.512H292.805V26.992L300.389 26.128V32.512H306.245L305.429 37.792H300.389V49.504C300.389 50.688 300.581 51.536 300.965 52.048C301.349 52.56 301.957 52.816 302.789 52.816C303.653 52.816 304.565 52.544 305.525 52L308.069 56.8ZM330.295 50.608C330.295 51.568 330.423 52.272 330.679 52.72C330.967 53.168 331.415 53.504 332.023 53.728L330.439 58.672C328.871 58.544 327.591 58.208 326.599 57.664C325.607 57.088 324.839 56.192 324.295 54.976C322.631 57.536 320.071 58.816 316.615 58.816C314.087 58.816 312.071 58.08 310.567 56.608C309.063 55.136 308.311 53.216 308.311 50.848C308.311 48.064 309.335 45.936 311.383 44.464C313.431 42.992 316.391 42.256 320.263 42.256H322.855V41.152C322.855 39.648 322.535 38.624 321.895 38.08C321.255 37.504 320.135 37.216 318.535 37.216C317.703 37.216 316.695 37.344 315.511 37.6C314.327 37.824 313.111 38.144 311.863 38.56L310.135 33.568C311.735 32.96 313.367 32.496 315.031 32.176C316.727 31.856 318.295 31.696 319.734 31.696C323.383 31.696 326.055 32.448 327.751 33.952C329.447 35.456 330.295 37.712 330.295 40.72V50.608ZM318.823 53.392C320.551 53.392 321.895 52.576 322.855 50.944V46.432H320.983C319.255 46.432 317.959 46.736 317.095 47.344C316.263 47.952 315.847 48.896 315.847 50.176C315.847 51.2 316.103 52 316.615 52.576C317.159 53.12 317.895 53.392 318.823 53.392ZM351.263 31.696C353.471 31.696 355.199 32.368 356.447 33.712C357.695 35.056 358.319 36.944 358.319 39.376V58H350.735V40.672C350.735 39.392 350.527 38.512 350.111 38.032C349.727 37.52 349.135 37.264 348.335 37.264C346.799 37.264 345.327 38.368 343.919 40.576V58H336.335V32.512H342.959L343.487 35.536C344.575 34.256 345.743 33.296 346.991 32.656C348.271 32.016 349.695 31.696 351.263 31.696ZM384.295 50.608C384.295 51.568 384.423 52.272 384.679 52.72C384.967 53.168 385.415 53.504 386.023 53.728L384.439 58.672C382.871 58.544 381.591 58.208 380.599 57.664C379.607 57.088 378.839 56.192 378.295 54.976C376.631 57.536 374.071 58.816 370.615 58.816C368.087 58.816 366.071 58.08 364.567 56.608C363.063 55.136 362.311 53.216 362.311 50.848C362.311 48.064 363.335 45.936 365.383 44.464C367.431 42.992 370.391 42.256 374.263 42.256H376.855V41.152C376.855 39.648 376.535 38.624 375.895 38.08C375.255 37.504 374.135 37.216 372.535 37.216C371.703 37.216 370.695 37.344 369.511 37.6C368.327 37.824 367.111 38.144 365.863 38.56L364.135 33.568C365.735 32.96 367.367 32.496 369.031 32.176C370.727 31.856 372.295 31.696 373.734 31.696C377.383 31.696 380.055 32.448 381.751 33.952C383.447 35.456 384.295 37.712 384.295 40.72V50.608ZM372.823 53.392C374.551 53.392 375.895 52.576 376.855 50.944V46.432H374.983C373.255 46.432 371.959 46.736 371.095 47.344C370.263 47.952 369.847 48.896 369.847 50.176C369.847 51.2 370.103 52 370.615 52.576C371.159 53.12 371.895 53.392 372.823 53.392Z" fill="#141414"/>
</g>
<defs>
<clipPath id="clip0_304_5">
<rect width="396" height="87" fill="white"/>
</clipPath>
</defs>
</svg>
